<svg width="100%" height="100%" viewBox="0 0 53 61" version="1.1" xmlns="http://www.w3.org/2000/svg" xmlns:xlink="http://www.w3.org/1999/xlink" xml:space="preserve" class="svg" xmlns:serif="http://www.serif.com/">
    <path d="M31.363,16.712c-0.369,0.513 -0.704,1.047 -1.007,1.597c-0.108,0.197 -0.204,0.402 -0.28,0.613c-0.018,0.05 -0.041,0.074 -0.101,0.073c-0.613,-0.002 -1.226,-0.001 -1.839,-0.002c-0.006,0 -0.012,-0.003 -0.022,-0.006c0.568,-0.127 1.046,-0.414 1.503,-0.743c0.395,-0.286 0.759,-0.603 1.106,-0.939c0.234,-0.227 0.464,-0.457 0.682,-0.711c0.029,0.062 -0.021,0.09 -0.042,0.118m-6.697,1.219c0,0.361 0.177,0.628 0.452,0.851c0.082,0.066 0.164,0.132 0.256,0.206l-2.356,-0c0.038,-0.06 0.101,-0.093 0.152,-0.132c0.303,-0.233 0.517,-0.513 0.56,-0.897c0.01,-0.085 0.018,-0.17 0.018,-0.255c0,-2.97 0.001,-5.94 -0.001,-8.91c-0.001,-0.335 -0.078,-0.655 -0.292,-0.931c-0.086,-0.11 -0.169,-0.225 -0.294,-0.302c-0.039,-0.025 -0.071,-0.059 -0.125,-0.106l2.362,0c-0.116,0.101 -0.233,0.191 -0.337,0.295c-0.256,0.253 -0.395,0.548 -0.395,0.906c0.002,3.092 0.002,6.183 0,9.275m7.089,-2.186c-0.054,-0.02 -0.078,-0.013 -0.117,0.034c-0.285,0.347 -0.582,0.683 -0.903,1.001c-0.261,0.259 -0.529,0.512 -0.818,0.745c-0.235,0.19 -0.475,0.375 -0.725,0.547c-0.41,0.281 -0.844,0.523 -1.312,0.704c-0.291,0.112 -0.587,0.21 -0.912,0.199c-0.451,-0.015 -0.799,-0.205 -1.066,-0.543c-0.22,-0.278 -0.29,-0.605 -0.29,-0.942c-0.004,-2.698 -0.003,-5.395 -0.001,-8.093c0,-0.21 -0.008,-0.42 0.017,-0.632c0.029,-0.244 0.091,-0.472 0.232,-0.678c0.233,-0.339 0.55,-0.557 0.977,-0.617c0.164,-0.023 0.164,-0.026 0.164,-0.196c-0,-0.04 -0.005,-0.08 0.001,-0.118c0.018,-0.1 -0.03,-0.116 -0.124,-0.116c-1.574,0.003 -3.149,0.002 -4.723,0.003c-0.1,-0 -0.231,-0.041 -0.292,0.016c-0.068,0.063 -0.01,0.191 -0.024,0.289c-0.011,0.089 0.029,0.104 0.113,0.105c0.333,0.004 0.618,0.128 0.862,0.34c0.354,0.308 0.501,0.704 0.501,1.152c0.002,2.852 0.001,5.704 0.001,8.555c-0.001,0.33 -0.114,0.622 -0.354,0.858c-0.391,0.386 -0.854,0.631 -1.43,0.635c-0.062,0 -0.075,0.024 -0.074,0.076c0.003,0.112 0.001,0.223 0.001,0.334l9.446,-0c0.06,-0.567 0.183,-1.121 0.363,-1.664c0.196,-0.593 0.451,-1.164 0.715,-1.732c0.02,-0.044 0.019,-0.098 0.066,-0.13l0,-0.043c-0.098,-0.029 -0.198,-0.054 -0.294,-0.089" class="svg__logo"></path>
    <path d="M15.5,43.5c-0.138,-0 -0.25,0.112 -0.25,0.25l-0,4.5c-0,0.138 0.112,0.25 0.25,0.25c0.138,-0 0.25,-0.112 0.25,-0.25l-0,-4.5c-0,-0.138 -0.112,-0.25 -0.25,-0.25"></path>
    <path d="M42.573,52.073l-2.5,2.5c-0.098,0.098 -0.098,0.256 -0,0.354c0.049,0.049 0.113,0.073 0.177,0.073c0.063,0 0.127,-0.024 0.176,-0.073l2.5,-2.5c0.098,-0.098 0.098,-0.256 0,-0.354c-0.097,-0.097 -0.256,-0.097 -0.353,0"></path>
    <path d="M42.426,47.073c-0.097,-0.097 -0.256,-0.097 -0.353,0l-8,8c-0.098,0.098 -0.098,0.256 -0,0.354c0.049,0.049 0.113,0.073 0.176,0.073c0.064,0 0.128,-0.024 0.177,-0.073l8,-8c0.098,-0.098 0.098,-0.256 0,-0.354"></path>
    <path d="M4.75,39.077c0.885,0.537 1.916,0.923 3.056,0.923c3.21,0 5.475,-2.924 6.025,-3.71c0.79,1.037 3.126,3.71 6.239,3.71c0.064,0 0.124,-0.009 0.186,-0.011c-0.001,0.011 -0.006,0.02 -0.006,0.031l-0,19.699l-15.5,-0.08l-0,-20.562Zm-2.556,-3.081c-0.127,-0.171 -0.194,-0.378 -0.194,-0.595l0.042,-6.901l48.457,0l-0.03,6.513c0,0.488 -0.164,0.961 -0.463,1.334c-0.943,1.178 -2.89,3.153 -5.328,3.153c-3.104,0 -5.353,-3.132 -5.677,-3.609l0.044,-3.034c0.002,-0.138 -0.109,-0.252 -0.247,-0.254c-0.124,-0.002 -0.251,0.109 -0.253,0.246l-0.045,3.112c-0,0.014 0.009,0.025 0.01,0.038c-0.323,0.423 -2.792,3.501 -6.081,3.501c-3.242,0 -5.57,-2.857 -5.928,-3.323l0.043,-2.923c0.002,-0.138 -0.108,-0.252 -0.246,-0.254l-0.004,0c-0.136,0 -0.248,0.11 -0.25,0.246l-0.038,2.594c-0.307,0.442 -2.654,3.66 -5.936,3.66c-3.279,0 -5.745,-3.362 -6.073,-3.832l-0.028,-2.802c-0.001,-0.138 -0.119,-0.245 -0.252,-0.248c-0.138,0.002 -0.249,0.115 -0.248,0.253l0.03,3.019c-0.324,0.476 -2.58,3.61 -5.693,3.61c-1.148,0 -2.191,-0.451 -3.067,-1.037c-0.026,-0.11 -0.121,-0.194 -0.239,-0.194c-0.012,-0 -0.022,0.005 -0.033,0.006c-1.127,-0.82 -1.94,-1.828 -2.273,-2.279Zm6.592,-22.496l6.224,0c0.056,1.688 0.394,3.293 0.956,4.758l-2.44,4.88c-0.061,0.124 -0.012,0.274 0.112,0.336c0.036,0.018 0.074,0.026 0.112,0.026c0.091,0 0.179,-0.05 0.223,-0.138l2.245,-4.49c1.859,4.226 5.657,7.128 10.032,7.128c4.141,0 7.765,-2.601 9.717,-6.462l2.057,4.32c0.043,0.09 0.132,0.142 0.226,0.142c0.036,0 0.073,-0.008 0.107,-0.024c0.125,-0.06 0.178,-0.209 0.118,-0.333l-2.231,-4.686c0.738,-1.646 1.18,-3.496 1.245,-5.457l6.134,0l6.735,14.5l-48.219,0l6.647,-14.5Zm28.321,1.518c-0.022,0.155 -0.044,0.31 -0.07,0.463c0.026,-0.153 0.048,-0.308 0.07,-0.463Zm0.076,-0.671c-0.014,0.161 -0.03,0.321 -0.049,0.479c0.02,-0.158 0.035,-0.319 0.049,-0.479Zm0.056,-0.847c-0.008,0.223 -0.021,0.445 -0.038,0.665c0.018,-0.22 0.03,-0.442 0.038,-0.665Zm-0.903,4.582c-0.074,0.195 -0.151,0.389 -0.233,0.579c0.082,-0.19 0.159,-0.384 0.233,-0.579Zm0.206,-0.591c-0.06,0.186 -0.124,0.369 -0.192,0.55c0.068,-0.181 0.132,-0.365 0.192,-0.55Zm0.18,-0.601c-0.048,0.176 -0.1,0.35 -0.155,0.523c0.055,-0.173 0.107,-0.347 0.155,-0.523Zm0.155,-0.611c-0.039,0.167 -0.079,0.333 -0.123,0.497c0.044,-0.164 0.084,-0.33 0.123,-0.497Zm0.128,-0.622c-0.03,0.159 -0.06,0.318 -0.095,0.475c0.035,-0.157 0.065,-0.316 0.095,-0.475Zm-3.418,6.837c-0.172,0.179 -0.348,0.352 -0.529,0.518c0.181,-0.166 0.357,-0.339 0.529,-0.518Zm0.498,-0.552c-0.147,0.173 -0.298,0.341 -0.452,0.504c0.154,-0.163 0.305,-0.331 0.452,-0.504Zm0.944,-1.267c-0.276,0.423 -0.573,0.825 -0.891,1.205c0.318,-0.38 0.616,-0.782 0.891,-1.205Zm0.803,-1.42c-0.229,0.472 -0.485,0.924 -0.762,1.356c0.277,-0.432 0.533,-0.884 0.762,-1.356Zm-8.177,6.388c-0.175,0.026 -0.352,0.047 -0.53,0.063c0.178,-0.016 0.355,-0.037 0.53,-0.063Zm0.813,-0.154c-0.216,0.052 -0.435,0.095 -0.656,0.131c0.221,-0.036 0.44,-0.079 0.656,-0.131Zm0.657,-0.183c-0.176,0.056 -0.354,0.106 -0.533,0.151c0.179,-0.045 0.357,-0.095 0.533,-0.151Zm0.76,-0.27c-0.194,0.078 -0.391,0.149 -0.589,0.216c0.198,-0.067 0.395,-0.138 0.589,-0.216Zm0.657,-0.296c-0.204,0.1 -0.41,0.195 -0.62,0.281c0.21,-0.086 0.416,-0.181 0.62,-0.281Zm0.631,-0.339c-0.165,0.095 -0.331,0.186 -0.5,0.272c0.169,-0.086 0.336,-0.177 0.5,-0.272Zm0.7,-0.442c-0.193,0.132 -0.389,0.258 -0.589,0.377c0.2,-0.119 0.396,-0.244 0.589,-0.377Zm0.556,-0.415c-0.176,0.14 -0.356,0.275 -0.54,0.403c0.184,-0.128 0.364,-0.263 0.54,-0.403Zm0.621,-0.525c-0.169,0.154 -0.343,0.302 -0.52,0.445c0.177,-0.143 0.351,-0.291 0.52,-0.445Zm-12.723,0.723c-0.205,-0.152 -0.406,-0.312 -0.602,-0.479c0.196,0.167 0.397,0.327 0.602,0.479Zm0.625,0.43c-0.193,-0.123 -0.382,-0.252 -0.568,-0.388c0.186,0.136 0.375,0.265 0.568,0.388Zm0.707,0.416c-0.215,-0.115 -0.426,-0.238 -0.633,-0.368c0.207,0.13 0.418,0.253 0.633,0.368Zm0.656,0.318c-0.195,-0.087 -0.388,-0.179 -0.577,-0.278c0.189,0.099 0.382,0.191 0.577,0.278Zm0.786,0.313c-0.224,-0.078 -0.445,-0.164 -0.662,-0.258c0.217,0.094 0.438,0.18 0.662,0.258Zm0.683,0.206c-0.201,-0.054 -0.401,-0.113 -0.598,-0.179c0.197,0.066 0.397,0.125 0.598,0.179Zm0.853,0.188c-0.233,-0.039 -0.462,-0.089 -0.69,-0.146c0.228,0.057 0.457,0.107 0.69,0.146Zm0.708,0.091c-0.216,-0.02 -0.431,-0.047 -0.644,-0.081c0.213,0.034 0.428,0.061 0.644,0.081Zm0.905,0.046c0.23,0 0.458,-0.011 0.684,-0.027c-0.226,0.016 -0.454,0.027 -0.684,0.027c-0.242,0 -0.482,-0.012 -0.72,-0.03c0.238,0.018 0.478,0.03 0.72,0.03Zm-8.206,-4.266c-0.333,-0.432 -0.64,-0.89 -0.92,-1.372c0.28,0.482 0.588,0.94 0.92,1.372Zm1.073,1.217c-0.376,-0.371 -0.73,-0.772 -1.059,-1.198c0.329,0.426 0.683,0.826 1.059,1.198Zm0.596,0.551c-0.192,-0.165 -0.379,-0.338 -0.561,-0.517c0.182,0.179 0.369,0.352 0.561,0.517Zm-2.592,-3.146c-0.282,-0.485 -0.535,-0.994 -0.758,-1.523c0.223,0.529 0.477,1.038 0.758,1.523Zm-1.346,-3.223c-0.096,-0.346 -0.179,-0.698 -0.249,-1.056c0.07,0.358 0.153,0.71 0.249,1.056Zm0.342,1.073c-0.124,-0.34 -0.235,-0.688 -0.334,-1.042c0.099,0.354 0.21,0.702 0.334,1.042Zm-0.775,-3.339c-0.04,-0.368 -0.069,-0.74 -0.082,-1.117c0.013,0.377 0.042,0.749 0.082,1.117Zm0.171,1.143c-0.066,-0.352 -0.123,-0.708 -0.164,-1.071c0.042,0.362 0.097,0.719 0.164,1.071Zm21.487,-2.76c-0,0.168 -0.006,0.334 -0.011,0.5c-0.059,1.732 -0.425,3.373 -1.032,4.855c-0.083,0.205 -0.172,0.406 -0.265,0.605c-1.823,3.891 -5.37,6.54 -9.442,6.54c-4.304,0 -8.023,-2.958 -9.738,-7.216c-0.084,-0.21 -0.165,-0.422 -0.24,-0.638c-0.446,-1.29 -0.712,-2.686 -0.762,-4.146c-0.005,-0.166 -0.01,-0.332 -0.01,-0.5c-0,-6.892 4.822,-12.5 10.75,-12.5c5.927,0 10.75,5.608 10.75,12.5Zm11.281,46.864l-27.531,-0.142l-0,-19.702c-0,-0.021 -0.008,-0.041 -0.012,-0.061c2.698,-0.318 4.65,-2.483 5.393,-3.443c0.462,0.604 2.846,3.484 6.298,3.484c3.29,0 5.72,-2.741 6.359,-3.543c0.709,0.965 2.882,3.543 5.89,3.543c1.368,0 2.58,-0.56 3.572,-1.272l-0,21.022c-0,0.042 0.012,0.079 0.031,0.114Zm3.97,0.021l-3.533,-0.018c0.018,-0.036 0.032,-0.074 0.032,-0.117l-0,-21.407c0.694,-0.573 1.254,-1.193 1.647,-1.683c0.369,-0.461 0.572,-1.046 0.572,-1.646l0.031,-6.763c-0,-0.037 -0.009,-0.071 -0.023,-0.102c-0.001,-0.001 -0,-0.003 -0.001,-0.004l-6.967,-15c-0.041,-0.089 -0.129,-0.145 -0.227,-0.145l-6.282,0c-0,-7.168 -5.047,-13 -11.25,-13c-6.203,0 -11.25,5.832 -11.25,13l-6.374,0c-0.098,0 -0.187,0.057 -0.227,0.146l-6.876,15c-0.036,0.077 -0.03,0.167 0.016,0.239c0.001,0.002 0.003,0.002 0.004,0.004l-0.043,7.011c-0,0.326 0.101,0.635 0.292,0.894c0.444,0.601 1.301,1.63 2.458,2.452l-0,20.89l-3.999,-0.02c-0.138,-0.001 -0.251,0.11 -0.251,0.248c-0.001,0.138 0.111,0.251 0.249,0.252l51.999,0.269c0.138,-0 0.251,-0.111 0.251,-0.249c0.001,-0.138 -0.11,-0.251 -0.248,-0.251Z"></path>
  </svg>