<svg width="100%" height="100%" viewBox="0 0 168 120" version="1.1" xmlns="http://www.w3.org/2000/svg" xmlns:xlink="http://www.w3.org/1999/xlink" xml:space="preserve" xmlns:serif="http://www.serif.com/" style="fill-rule:evenodd;clip-rule:evenodd;stroke-linejoin:round;stroke-miterlimit:2;" class="svg">
    <path d="M127.5,116.9l-7.9,1.6l-34.8,0.4l-9.9,-1.2l-40.9,-10.8l0,-35.8l15.9,-1.6c2.6,-0.3 5.2,0.1 7.5,1.1l34.6,14.7l0.1,0.2c1,1.5 1,3.3 0.2,4.9c-1,1.9 -3,3.1 -5.4,3.3l-19.5,-3.4c-0.3,-0.1 -0.5,0.1 -0.6,0.4c-0.1,0.3 0,0.5 0.3,0.7l20,10.7l3.5,1.1l34.3,4.6c0.2,0.3 0.4,0.6 0.6,0.9c2.5,3.4 3.9,5.7 2,8.2Zm-117,-7.5l22.2,0l0,-43.3l-22.2,0l0,43.3Zm115.2,-2.4c-0.1,-0.1 -0.2,-0.2 -0.4,-0.2l-34.4,-4.7l-3.4,-1.1l-17,-9.1l16.2,2.8l0.1,0c2.7,-0.2 5.2,-1.6 6.3,-3.9c1,-1.9 0.9,-4.1 -0.3,-6l-0.5,-0.5l-34.5,-14.7c-2.5,-1 -5.3,-1.4 -8,-1.1l-16,1.6l0,-4.5c0,-0.3 -0.2,-0.5 -0.5,-0.5l-23.3,0c-0.3,0 -0.5,0.2 -0.5,0.5l0,44.4c0,0.3 0.2,0.5 0.5,0.5l23.2,0c0.3,0 0.5,-0.2 0.5,-0.5l0,-2l40.9,10.8l10.1,1.2l34.9,-0.4l8.2,-1.6c0.1,0 0.2,-0.1 0.3,-0.2c2.7,-3.4 0.5,-6.6 -1.7,-9.7c-0.2,-0.4 -0.4,-0.7 -0.7,-1.1Z"></path>
    <path d="M155.7,60.6l-40.6,0l-0,-15.1l40.6,0l-0,15.1Zm-1.7,37.7l-38.9,0.4l-0,-37l38.9,-0l-0,36.6Zm-48.7,0.4l8.6,-0l-0,-37l-8.6,-0l-0,37Zm-38.4,-38.1l37.4,-0l-0,-15.1l-37.4,-0l-0,15.1Zm5.7,-43c-0.8,-7.2 3.2,-12.7 10.6,-14.7c1.5,-0.4 3,-0.6 4.3,-0.6c3,-0 5.7,0.9 8.1,2.8c2.6,2 4.7,5 6.4,8.4c-0.5,-0.5 -1,-1 -1.6,-1.4c-2.7,-1.9 -5.9,-2.1 -9.7,-0.8c-5.6,2 -8.3,6 -7.6,11.2c1.1,7.8 9.2,16.6 17.9,20.6c-13.7,-3 -26.9,-12.3 -28.4,-25.5Zm45.9,-4.6c2.8,-2.9 6.2,-4.4 10.2,-4.4c3.3,-0 6.8,1.9 9.3,5.1c2.7,3.4 4.4,9.2 -2.4,17.5c1.8,-3.3 2.6,-7.3 1.8,-10.8c-1,-4.4 -4.3,-7.1 -9,-7.3l-0.4,-0c-9,-0 -15.6,17.6 -18.2,26.3c0.5,-6.9 2.2,-19.7 8.7,-26.4Zm10.2,24.7c-5,3.4 -10.1,4.9 -13.9,5.5c3.9,-1.2 9.2,-3 13.9,-5.5Zm1.3,-1.9c-7.4,4.3 -17.2,7 -20.2,7.8c1.3,-5 8.4,-29.3 18.3,-29.3l0.3,-0c5.7,0.3 7.4,4.2 8,6.5c1.3,5.4 -1.6,12.2 -6.4,15Zm-21.6,4.7c-0,0.8 0.1,1.5 0.1,2c-0,0.7 -0,1.2 0.1,1.6c-0.3,-0.1 -0.6,-0.1 -0.9,-0.1c-10.2,-1.5 -22.1,-12.3 -23.4,-21.7c-0.7,-4.8 1.7,-8.2 6.9,-10.1c1.4,-0.5 2.7,-0.7 4,-0.7c1.7,-0 3.3,0.5 4.7,1.5c1.8,1.2 3.1,3.2 4.2,5.5c2.8,7.9 3.9,16.8 4.3,22Zm-3.1,20.1l8.7,-0l-0,-15.1l-8.7,-0l-0,15.1Zm53.2,-38.4c0.3,-8 -3.5,-9.8 -5.2,-10.3c-3.1,-0.8 -6.6,0.8 -8.1,3.7c-0.7,1.4 -1.8,5.1 3.1,9.2c0.2,0.2 0.6,0.2 0.7,-0.1c0.2,-0.2 0.2,-0.6 -0.1,-0.8c-3,-2.5 -4,-5.4 -2.8,-7.9c1.2,-2.4 4.3,-3.8 6.8,-3.2c3,0.8 4.6,4.1 4.4,9.2c-0.6,15.2 -25.5,20 -39.4,21.5c5.5,-1.4 12.5,-4.5 18.2,-11.5c7.4,-9 5.4,-15.4 2.5,-19.1c-2.7,-3.5 -6.5,-5.5 -10.2,-5.6c-4.3,-0 -7.9,1.6 -10.9,4.7c-5.7,5.9 -7.8,16.1 -8.6,23.4c-0.5,-5.5 -1.5,-12.4 -4,-17.6c-2,-5.6 -4.8,-10.7 -8.8,-13.9c-3.6,-2.6 -8.1,-3.4 -13.2,-2.1c-7.9,2.2 -12.2,8.1 -11.3,15.9c1.3,11.5 12.7,23.6 30.4,26.7l-35.7,-0c-0.3,-0 -0.5,0.2 -0.5,0.5l-0,24.5c-0,0.3 0.2,0.5 0.5,0.5c0.3,-0 0.5,-0.2 0.5,-0.5l-0,-7.7l37.4,-0l-0,37l-9.4,-0c-0.3,-0 -0.5,0.2 -0.5,0.5c-0,0.3 0.2,0.5 0.5,0.5l19.6,-0l40,-0.5c0.3,-0 0.5,-0.2 0.5,-0.5l-0,-37l1.1,0c0.3,0 0.5,-0.2 0.5,-0.5l-0,-16.2c-0,-0.3 -0.2,-0.5 -0.5,-0.5l-35.4,0c3.8,-0.5 8.2,-1.2 12.5,-2.2c16.4,-4 25.1,-11 25.4,-20.1Z"></path>
    <path d="M142.8,87c-0.8,1.1 -1.5,2.3 -2.1,3.5c-0.2,0.4 -0.4,0.9 -0.6,1.4c0,0.1 -0.1,0.2 -0.2,0.2l-3.8,0c1.2,-0.3 2.2,-0.9 3.1,-1.6c0.8,-0.6 1.6,-1.3 2.3,-2.1c0.5,-0.5 1,-1 1.4,-1.6c0.1,0.1 -0,0.1 -0.1,0.2m-13.7,2.8c-0,0.8 0.4,1.3 1,1.8c0.2,0.1 0.4,0.3 0.6,0.4l-5.3,-0c0.1,-0.1 0.2,-0.2 0.3,-0.3c0.7,-0.5 1.2,-1.1 1.2,-1.9l-0,-19.3c-0,-0.7 -0.2,-1.4 -0.7,-2c-0.2,-0.2 -0.4,-0.5 -0.7,-0.6c-0.1,-0.1 -0.2,-0.1 -0.3,-0.2l5.3,-0c-0.3,0.2 -0.5,0.4 -0.8,0.6c-0.6,0.5 -0.9,1.2 -0.9,1.9c0.4,6.6 0.4,13.1 0.3,19.6m14.7,-4.6c-0.1,-0 -0.2,-0 -0.2,0.1c-0.6,0.7 -1.2,1.4 -1.9,2.1c-0.5,0.5 -1.1,1.1 -1.7,1.6c-0.5,0.4 -1,0.8 -1.5,1.1c-0.9,0.6 -1.8,1.1 -2.7,1.5c-0.6,0.2 -1.2,0.4 -1.9,0.4c-0.9,-0 -1.7,-0.4 -2.2,-1.1c-0.5,-0.6 -0.6,-1.3 -0.6,-2l-0,-18.2c0.1,-0.5 0.2,-1 0.5,-1.4c0.5,-0.7 1.1,-1.2 2,-1.3c0.3,-0 0.3,-0.1 0.3,-0.4l-0,-0.2c-0,-0.2 -0.1,-0.2 -0.3,-0.2l-9.8,-0c-0.2,-0 -0.5,-0.1 -0.6,-0c-0.1,0.1 -0,0.4 -0,0.6c-0,0.2 0.1,0.2 0.2,0.2c0.7,-0 1.3,0.3 1.8,0.7c0.7,0.6 1,1.5 1,2.4l-0,17.8c-0,0.7 -0.2,1.3 -0.7,1.8c-0.8,0.8 -1.8,1.3 -3,1.3c-0.1,-0 -0.2,-0 -0.2,0.2l-0,0.7l19.6,-0c0.1,-1.2 0.4,-2.3 0.8,-3.5c0.4,-1.2 0.9,-2.4 1.5,-3.6c-0,-0.1 -0,-0.2 0.1,-0.3l-0,-0.1c-0.1,-0.1 -0.3,-0.2 -0.5,-0.2" class="svg__logo"></path>
  </svg>