<?xml version="1.0" encoding="UTF-8"?>
<svg id="_레이어_2" data-name="레이어 2" xmlns="http://www.w3.org/2000/svg" viewBox="0 0 56.18 38.34">
  <defs>
    <style>
      .cls-1 {
        fill: none;
        stroke: #1d1d1b;
        stroke-miterlimit: 10;
      }
    </style>
  </defs>
  <g id="Layer_1" data-name="Layer 1">
    <path class="cls-1" d="m1.23,12.19S-.78.5,26.78.5s28.25,11.36,28.25,11.36v1.52s-26.08,6.63-53.76,0l-.04-1.19Z"/>
    <path class="cls-1" d="m1.28,13.38l-.05,2.59s21,7.77,53.81-.07v-2.52s-25.9,6.42-53.76,0Z"/>
    <path class="cls-1" d="m1.38,16.02s9.29,3.78,26.85,3.37c7.5-.17,16.36-1.16,26.8-3.49,0,0,1.38,2.73.1,4.81-.41.67-12.84,4.47-27.34,4.75-8.6.16-17.52-.76-26.47-4.31,0,0-1.89-1.97.06-5.13Z"/>
    <path class="cls-1" d="m1.22,21.13s21.9,9.91,53.81-.09v2.23s-27.98,11.2-53.81,0v-2.15Z"/>
    <path class="cls-1" d="m1.21,23.24s21.69,11.33,53.81,0v2.28s-.28,12.32-26.9,12.32S1.21,26.97,1.21,26.97v-3.72Z"/>
  </g>
</svg>