<svg width="100%" height="100%" viewBox="0 0 160 120" version="1.1" xmlns="http://www.w3.org/2000/svg" xmlns:xlink="http://www.w3.org/1999/xlink" xml:space="preserve" xmlns:serif="http://www.serif.com/" class="svg">
    <path d="M100.5,42.4c-0.4,0 -0.8,0.4 -0.8,0.8l0,16.3c0,0.4 0.4,0.8 0.8,0.8l12,0l0,-17.9l-12,0Zm13,18.9l-13,0c-1,0 -1.7,-0.8 -1.7,-1.8l0,-16.3c0,-1 0.8,-1.8 1.7,-1.8l13,0l0,19.9Zm9.5,-1l3.7,-0c1.5,-0 2.4,-0.8 2.8,-1.3c0.5,-0.6 0.7,-1.4 0.6,-2l-3.6,-13.7c-0.1,-0.5 -0.7,-0.9 -1.2,-0.9l-9.6,-0l0,17.9l2.7,-0l7.5,-7.3c0.4,-0.4 0.9,-0.6 1.4,-0.6c0.4,-0 0.8,0.2 1,0.4c0.3,0.3 0.4,0.6 0.4,1c0,0.5 -0.2,1 -0.6,1.4l-5.1,5.1Zm3.7,1l-6.1,-0l6.8,-6.6c0.2,-0.2 0.4,-0.5 0.4,-0.7c-0,-0.1 -0,-0.3 -0.1,-0.4c-0.1,-0.1 -0.2,-0.1 -0.4,-0.1c-0.3,-0 -0.5,0.1 -0.8,0.3l-7.8,7.5l-4.1,-0l-0,-19.8l10.6,0c0.9,0 1.8,0.7 2.1,1.6l3.6,13.8c0.2,0.9 -0.1,1.9 -0.8,2.8c-0.4,0.6 -1.5,1.6 -3.4,1.6Zm-24.7,4.1c-1.6,0 -2.3,1.2 -2.3,2.4c-0,1.1 0.7,2.3 2.3,2.3c0.8,-0 1.4,-0.3 1.8,-0.8l0.1,-0.2l7,-0c1,-0 1.4,-0.7 1.4,-1.4c-0,-0.7 -0.4,-1.4 -1.4,-1.4l-7,0l-0.1,-0.2c-0.4,-0.4 -1,-0.7 -1.8,-0.7Zm-0,5.7c-2.1,0 -3.3,-1.7 -3.3,-3.3c-0,-1.6 1.1,-3.3 3.3,-3.3c1.2,0 1.9,0.5 2.4,0.9l6.5,0c1.5,0 2.3,1.2 2.3,2.4c-0,1.2 -0.8,2.4 -2.3,2.4l-6.6,-0c-0.3,0.4 -1.1,0.9 -2.3,0.9Zm-99.4,29c-0.4,-0 -0.8,0.2 -1.2,0.5c-0.3,0.3 -0.5,0.7 -0.5,1.2l-0,2.1c-0,0.9 0.7,1.6 1.6,1.6l16.3,-0c1,-0 1.8,-0.8 1.8,-1.8l-0,-1c-0,-11 8.9,-19.9 19.8,-19.9c10.9,-0 19.8,8.9 19.8,19.9l-0,0.9c-0,1.1 0.8,1.9 1.8,1.9l31.6,-0l0.4,-82l-87.5,-0c-0.9,-0 -1.6,0.7 -1.6,1.6l-0,75l-2.3,-0Zm114.6,-17.4c10.9,-0 19.8,8.9 19.8,19.9l-0,0.9c-0,1.1 0.8,1.9 1.8,1.9l4.6,0.2c0.4,-0 0.8,-0.1 1.1,-0.4c0.3,-0.3 0.5,-0.7 0.5,-1.1l-0,-7.3l12.5,-0c0.9,-0 1.6,-0.7 1.6,-1.6l-1.8,-29.4c-0.1,-0.9 -0.6,-1.2 -1.8,-1.7c-0,-0 -10.2,-2.4 -16.8,-4l8.4,31.6c0.1,0.3 -0.1,0.5 -0.3,0.6c-0.3,0.1 -0.5,-0.1 -0.6,-0.3l-8.6,-32.4l-5.8,-21.2c-0,-0.2 -4.3,-14.9 -31.3,-14.9l-5.4,-0l-0.4,82l0.9,-0c1,-0 1.8,-0.8 1.8,-1.8l-0,-1c0,-11.1 8.9,-20 19.8,-20Zm26.3,23.8l-4.6,-0.2c-1.5,-0 -2.7,-1.3 -2.7,-2.8l0,-1c0,-10.5 -8.5,-19 -18.9,-19c-10.4,-0 -18.9,8.5 -18.9,19l0,1c0,1.5 -1.2,2.7 -2.7,2.8l0,-0.1c-0.6,0.1 -2,0.1 -5.2,0.1l-28.3,-0c-1.5,-0 -2.7,-1.3 -2.7,-2.8l0,-1c0,-10.5 -8.5,-19 -18.9,-19c-10.4,-0 -18.9,8.5 -18.9,19l0,1c0,1.5 -1.2,2.7 -2.7,2.8c-0.4,-0 -1.2,0.1 -2.6,0.1l-13.8,-0c-1.4,-0 -2.6,-1.2 -2.6,-2.6l0,-2.1c0,-0.7 0.3,-1.3 0.7,-1.8c0.5,-0.5 1.1,-0.8 1.8,-0.8l1.6,-0l0,-74c0,-1.4 1.1,-2.6 2.6,-2.6l93.7,-0c14.4,-0 22.4,4.2 26.6,7.7c4.5,3.9 5.6,7.7 5.6,7.9l5.8,20.9c6.5,1.6 17.2,4.1 17.3,4.2c1.3,0.5 2.3,1 2.5,2.5l1.8,29.4c0,1.5 -1.2,2.6 -2.6,2.6l-11.5,-0l0,6.3c0,0.7 -0.3,1.3 -0.7,1.8c-0.5,0.5 -1.1,0.7 -1.7,0.7Zm-102.8,-11.5c-4.1,-0 -7.5,3.4 -7.5,7.6c-0,4.2 3.4,7.6 7.5,7.6c4.1,-0 7.5,-3.4 7.5,-7.6c-0,-4.2 -3.4,-7.6 -7.5,-7.6Zm-0,16.1c-4.7,-0 -8.5,-3.8 -8.5,-8.5c-0,-4.7 3.8,-8.5 8.5,-8.5c4.7,-0 8.5,3.8 8.5,8.5c-0.1,4.7 -3.9,8.5 -8.5,8.5Zm76.8,-16.1c-4.1,-0 -7.5,3.4 -7.5,7.6c-0,4.2 3.4,7.6 7.5,7.6c4.1,-0 7.5,-3.4 7.5,-7.6c0.1,-4.2 -3.3,-7.6 -7.5,-7.6Zm-0,16.1c-4.7,-0 -8.5,-3.8 -8.5,-8.5c-0,-4.7 3.8,-8.5 8.5,-8.5c4.7,-0 8.5,3.8 8.5,8.5c-0,4.7 -3.8,8.5 -8.5,8.5Zm-76.8,-24.5c-8.8,-0 -15.9,7.2 -15.9,16c-0,8.8 7.1,16 15.9,16c8.8,-0 15.9,-7.2 15.9,-16c-0,-8.8 -7.2,-16 -15.9,-16Zm-0,32.9c-9.3,-0 -16.8,-7.6 -16.8,-16.9c-0,-9.3 7.5,-16.9 16.8,-16.9c9.3,-0 16.8,7.6 16.8,16.9c-0,9.3 -7.6,16.9 -16.8,16.9Zm76.8,-32.9c-8.8,-0 -15.9,7.2 -15.9,16c-0,8.8 7.1,16 15.9,16c8.8,-0 15.9,-7.2 15.9,-16c-0,-8.8 -7.1,-16 -15.9,-16Zm-0,32.9c-9.3,-0 -16.8,-7.6 -16.8,-16.9c-0,-9.3 7.5,-16.9 16.8,-16.9c9.3,-0 16.8,7.6 16.8,16.9c0.1,9.3 -7.5,16.9 -16.8,16.9Z"></path>
    <path class="svg__logo" d="M63.9,63.8c-1,1.5 -1.9,3.1 -2.7,4.7c-0.3,0.6 -0.6,1.2 -0.8,1.8c0,0.1 -0.1,0.2 -0.3,0.2l-5.1,0c1.6,-0.4 2.9,-1.2 4.1,-2.2c1.1,-0.8 2.1,-1.8 3,-2.7c0.6,-0.7 1.3,-1.3 1.9,-2.1c0.1,0.2 -0.1,0.3 -0.1,0.3m-18.1,3.8c0,1 0.5,1.7 1.3,2.4c0.2,0.2 0.5,0.4 0.8,0.6l-6.9,0c0.1,-0.2 0.3,-0.3 0.4,-0.4c0.9,-0.6 1.5,-1.4 1.6,-2.5c0,-0.2 0.1,-0.5 0.1,-0.7l0,-24.7c0,-0.9 -0.2,-1.8 -0.9,-2.6c-0.3,-0.3 -0.5,-0.6 -0.9,-0.8c-0.1,-0.1 -0.2,-0.2 -0.4,-0.3l7.1,0c-0.3,0.3 -0.7,0.5 -1,0.8c-0.8,0.7 -1.2,1.5 -1.2,2.5c0.1,8.5 0.1,17.1 0,25.7m19.4,-6.2c-0.1,-0.1 -0.2,0 -0.3,0.1c-0.8,1 -1.6,1.9 -2.5,2.7c-0.7,0.7 -1.4,1.4 -2.2,2c-0.6,0.5 -1.3,1 -2,1.5c-1.1,0.8 -2.3,1.4 -3.6,1.9c-0.8,0.3 -1.6,0.6 -2.5,0.5c-1.2,0 -2.2,-0.6 -2.9,-1.5c-0.6,-0.8 -0.8,-1.7 -0.8,-2.6l0,-23.9c0.1,-0.7 0.2,-1.3 0.6,-1.9c0.6,-0.9 1.5,-1.5 2.7,-1.7c0.5,-0.1 0.4,-0.1 0.4,-0.5l0,-0.3c0,-0.3 -0.1,-0.3 -0.3,-0.3l-12.9,0c-0.3,0 -0.6,-0.1 -0.8,0c-0.2,0.2 0,0.5 -0.1,0.8c0,0.2 0.1,0.3 0.3,0.3c0.9,0 1.7,0.4 2.4,0.9c1,0.8 1.4,1.9 1.4,3.2l0,23.5c0,0.9 -0.3,1.7 -1,2.4c-1.1,1.1 -2.3,1.7 -3.9,1.7c-0.2,0 -0.2,0.1 -0.2,0.2l0,0.9l25.9,0c0.2,-1.6 0.5,-3.1 1,-4.6c0.5,-1.6 1.2,-3.2 2,-4.8c0.1,-0.1 0.1,-0.3 0.2,-0.4l0,-0.1c-0.4,0.2 -0.6,0.1 -0.9,-0"></path>
  </svg>