<svg width="150px" class="logo" alt="Ladurée Paris" viewBox="0 0 181 65" xmlns="http://www.w3.org/2000/svg" xmlns:xlink="http://www.w3.org/1999/xlink">
								<path d="M4.402,7.114c0.218,0.525 0.269,0.967 0.269,1.438l-0,18.826c-0,1.05 -0.464,1.774 -1.532,2.534l4.981,0c-1.137,-0.905 -1.457,-1.34 -1.457,-2.353l-0,-19.478c-0,-0.688 0.141,-1.158 0.568,-1.484l1.137,-0.869l-5.121,0c-0,0 0.822,0.592 1.155,1.386Zm12.558,22.797c0.32,-1.231 2.186,-4.404 3.71,-6.36c-2.622,3.367 -5.695,6.349 -7.966,6.361l4.256,-0.001Zm-5.78,-0.035c1.147,0 4.929,-1.298 9.167,-6.806l0.533,0.217c-1.173,2.716 -1.982,4.525 -2.266,7.313l-18.614,0l-0,-0.688l0.571,0c1.316,0 3.424,-1.267 3.424,-3.005l-0,-18.174c-0,-1.738 -1.352,-3.005 -2.669,-3.005l-0.568,0l-0,-0.688l10.627,0l-0,0.688l-0.277,0c-1.423,0 -2.74,1.303 -2.74,3.005l0,18.174c0,1.629 1.176,2.969 2.812,2.969Zm24.52,-9.461l-4.23,-9.864l-3.806,9.864l8.036,0Zm-10.408,9.146c-0.198,-0.561 -0.395,-1.026 -0.395,-1.483c-0,-0.386 -0.248,-0.791 0.015,-1.401c-0.644,1.495 -1.392,2.04 -2.276,2.884l2.656,0Zm13.02,-4.349c0.125,0.281 0.608,1.686 0.485,2.259c-0.175,0.817 -0.305,1.542 -1.65,2.101l5.732,0c-1.134,-0.949 -1.921,-2.32 -2.677,-4.219l-7.47,-17.861l-0.946,2.251l6.526,15.469Zm-17.432,4.36c0.947,0 1.505,-0.527 2.357,-1.512c1.227,-1.441 1.717,-2.637 2.128,-3.621l7.87,-19.759l8.131,19.548c1.42,3.551 2.775,5.344 4.002,5.344l1.072,0l-0,0.668l-12.065,0l0,-0.668l0.977,0c1.605,-0.326 2.524,-0.84 2.874,-2.054c0.153,-0.528 -0.388,-1.848 -0.513,-2.165l-1.638,-4.114l-8.727,0l-1.45,3.516c-0.25,0.598 -0.378,1.125 -0.378,1.547c0,2.005 0.757,3.27 2.174,3.27l0.754,0l-0,0.668l-7.568,-0l-0,-0.668Zm41.085,0.347c5.007,0 7.802,-4.295 7.802,-12.457c-0,-7.876 -2.591,-11.742 -8.006,-11.742c-2.965,0 -4.429,0.895 -4.429,2.971l0,17.971c0,2.112 1.566,3.257 4.633,3.257Zm10.459,-12.385c-0,-5.084 -2.18,-9.165 -5.758,-11.062c2.453,1.933 3.713,5.62 3.713,11.026c-0,5.298 -1.125,9.021 -3.679,11.419c3.613,-2.327 5.724,-6.408 5.724,-11.383Zm-19.103,-10.634c0.25,0.428 0.477,0.857 0.467,1.613l0,18.614c0,1.038 -0.444,1.755 -1.466,2.506l4.77,0c-1.091,-0.895 -1.397,-1.325 -1.397,-2.327l0,-19.259c0,-0.68 0.138,-1.145 0.546,-1.468l1.091,-0.859l-4.908,0c-0,0 0.65,0.752 0.897,1.18Zm-3.281,23.413l-0,-0.68l0.546,0c1.259,0 2.554,-1.253 2.554,-2.971l0,-17.971c0,-1.718 -1.295,-2.971 -2.554,-2.971l-0.179,0l0,-0.68l10.535,-0c2.759,-0 5.077,0.251 7.122,1.503c3.985,2.47 6.096,6.337 6.096,11.134c-0,4.331 -1.736,7.803 -5.245,10.596c-1.772,1.396 -4.362,2.327 -6.746,2.327c-0.987,0 -2.147,-0.287 -3.679,-0.287l-8.45,0Zm30.331,-23.257c0.224,0.472 0.358,0.756 0.355,1.437l0,11.178c0,5.945 3.054,9.398 8.024,10.11c-4.164,-1.424 -6.143,-4.45 -6.143,-9.683l0,-12.068c0,-0.676 0.134,-1.139 0.536,-1.459l1.075,-0.855l-4.837,0c0,0 0.665,0.648 0.99,1.34Zm19.33,-1.34l-3.695,0c1.128,0.921 2.514,2.501 2.478,3.254c0.065,-1.373 0.578,-2.364 1.217,-3.254Zm-19.614,2.955c0,-1.709 -1.275,-2.955 -2.52,-2.955l-0.167,0l0,-0.676l9.642,0l-0,0.676l-0.237,0c-1.345,0 -2.587,1.282 -2.587,2.955l-0,12.709c-0,1.993 0.133,3.56 1.278,5.055c1.342,1.78 3.19,2.706 5.472,2.706c4.87,-0 7.39,-3.632 7.39,-10.823l0,-6.479c0,-1.744 -0.405,-2.99 -1.446,-4.2c-1.108,-1.282 -1.78,-1.923 -2.62,-1.923l-0.173,0l0,-0.676l8.841,0l0,0.676l-0.271,0c-1.613,0 -3.728,2.635 -3.728,5.554l-0,6.977c-0,3.133 -0.134,5.696 -1.577,8.117c-1.613,2.705 -4.434,4.236 -7.892,4.236c-3.025,0 -5.71,-1.424 -7.591,-3.987c-1.309,-1.78 -1.814,-4.094 -1.814,-7.156l0,-10.786Zm95.953,21.052l-4.435,0.001c2.364,-0.012 5.566,-2.966 8.302,-6.301c-1.591,1.938 -3.533,5.081 -3.867,6.3Zm-15.681,0.004c1.094,-0.753 1.569,-1.47 1.569,-2.511l-0,-18.65c-0,-0.591 -0.267,-1.306 -0.459,-1.615c-0.307,-0.491 -1.001,-1.183 -1.001,-1.183l5.252,0l-1.167,0.861c-0.437,0.323 -0.584,0.789 -0.584,1.47l0,19.297c0,1.004 0.328,1.434 1.497,2.331l-5.107,0Zm15.801,-23.959c0.144,1.004 0.4,2.224 0.766,3.587c-1.35,-1.471 -2.863,-2.78 -5.435,-3.587l4.669,0Zm3.408,17.178c-4.416,5.457 -8.371,6.769 -9.569,6.769c0,0 -1.096,-0.001 -1.398,-0.001c-1.678,0 -2.881,-1.35 -2.881,-2.964l-0,-18.005c-0,-1.686 1.35,-2.977 2.809,-2.977l0.037,0l-0.141,0l0.003,0c3.026,0 7.401,2.403 9.336,6.026l0.656,-0.144c-0.438,-1.865 -0.619,-3.873 -0.619,-5.989l0,-0.574l-19.886,-0l-0,0.681l0.584,0c1.35,0 2.735,1.255 2.735,2.977l0,18.005c0,1.722 -1.385,2.977 -2.735,2.977l-0.189,0l-0,0.68l19.454,0c0.296,-2.762 1.136,-4.556 2.362,-7.246l-0.558,-0.215Zm-7.199,-6.061c-0.829,-0.625 -1.775,-1.176 -2.794,-1.617c1.019,-0.551 1.926,-1.212 2.794,-2.058l-0,3.675m-6.409,-1.286l1.719,-0c3.059,-0 5.447,2.168 5.447,4.813l-0,0.468l0.754,-0l0,-11.16l-0.754,-0l-0,0.625c-0,1.028 -0.757,2.057 -2.23,3.27c-1.134,0.918 -1.556,1.322 -3.065,1.322l-1.871,0m-15.001,14.972l-4.168,0.002c2.222,-0.012 5.232,-2.995 7.803,-6.361c-1.495,1.956 -3.321,5.128 -3.635,6.359Zm-14.741,0.005c1.028,-0.76 1.475,-1.485 1.475,-2.535l-0,-18.827c-0,-0.596 -0.251,-1.318 -0.432,-1.63c-0.288,-0.495 -0.94,-1.194 -0.94,-1.194l4.936,0l-1.096,0.869c-0.411,0.326 -0.549,0.796 -0.549,1.484l-0,19.479c-0,1.014 0.308,1.448 1.407,2.354l-4.801,-0Zm14.855,-24.186c0.135,1.014 0.376,2.245 0.717,3.62c-1.267,-1.484 -2.689,-2.806 -5.107,-3.62l4.39,0Zm3.203,17.34c-4.152,5.509 -7.869,6.833 -8.996,6.833c0,0 -1.033,-0.001 -1.314,-0.001c-1.577,0 -2.709,-1.362 -2.709,-2.992l0,-18.175c0,-1.702 1.269,-3.005 2.642,-3.005l0.034,0l-0.132,0l0.002,0c2.845,0 6.961,2.426 8.777,6.083l0.617,-0.145c-0.411,-1.883 -0.582,-3.911 -0.582,-6.047l0,-0.579l-18.695,0l-0,0.688l0.55,0c1.269,0 2.57,1.267 2.57,3.005l0,18.175c0,1.738 -1.301,3.006 -2.57,3.006l-0.179,-0l0,0.686l18.289,0c0.278,-2.788 1.069,-4.599 2.22,-7.315l-0.524,-0.217Zm-6.028,-6.183c-0.829,-0.625 -1.774,-1.176 -2.793,-1.617c1.019,-0.551 1.925,-1.212 2.793,-2.058l0,3.675m-6.408,-1.286l1.719,-0c3.059,-0 5.446,2.168 5.446,4.813l0,0.468l0.755,0l-0,-11.16l-0.755,0l0,0.625c0,1.028 -0.757,2.057 -2.23,3.27c-1.133,0.918 -1.556,1.322 -3.067,1.322l-1.868,0m-17.265,14.974c0.721,-0.914 0.48,-2.549 -0.19,-3.319l-6.986,-9.098l2.221,0l7.263,9.509c0.756,1.014 1.566,2.14 3.711,2.909l-6.019,-0.001Zm-11.041,-13.141l0,-8.218c0,-0.905 0.396,-1.629 1.229,-2.317c0.504,-0.507 1.032,-0.543 1.933,-0.543l0.975,-0c3.214,-0 5.38,2.534 5.38,5.901c-0,3.367 -1.445,5.177 -4.297,5.177l-5.22,-0Zm-5.197,-11.042l5.197,0l-1.154,0.869c-0.433,0.326 -0.578,0.797 -0.578,1.484l0,19.478c0,1.013 0.325,1.448 1.479,2.353l-5.053,0c1.084,-0.76 1.551,-1.484 1.551,-2.534l-0,-18.826c0.024,-0.789 -0.175,-1.026 -0.336,-1.414c-0.24,-0.577 -1.106,-1.41 -1.106,-1.41Zm17.601,6.046c-0,2.571 -1.804,4.598 -4.728,4.996c1.587,-0.941 2.527,-2.715 2.527,-5.068c0,-2.426 -0.974,-4.273 -2.926,-5.829c3.143,0.796 5.127,3.258 5.127,5.901Zm7.622,18.138l-0.206,0c-1.55,0 -3.983,-1.895 -5.224,-3.561l-6.862,-8.966c3.732,0.006 6.603,-2.238 6.619,-5.503c0.013,-2.28 -1.624,-4.597 -4.44,-5.9c-1.516,-0.725 -3.249,-0.942 -5.127,-0.942l-12.12,0l-0,0.688l0.188,0c1.336,0 2.707,1.267 2.707,3.005l-0,18.174c-0,1.738 -1.371,3.005 -2.707,3.005l-0.188,0l-0,0.688l10.771,0l-0,-0.688l-0.584,0c-1.553,0 -2.853,-1.34 -2.853,-3.005l0,-9.413l3.178,0l6.777,8.857c1.295,1.738 1.001,3.561 -0.335,3.561l-0.188,0l0,0.688l10.594,0l-0,-0.688Zm12.057,-27.441l-1.886,-0.006l2.323,-1.485l1.888,0.005l-2.325,1.486Zm0.456,-2.202l-4.5,2.936l4.969,-0l4.501,-2.936l-4.97,0Z"></path>
								<path class="logo__baseline" d="M115.117,63.06l0.051,0.052c0.826,-0.598 1.376,-1.302 1.8,-1.823c0.526,-0.599 0.526,-0.729 0.625,-0.729c0.076,0 0.127,0.053 0.127,0.157c0,0.078 -0.526,0.729 -1.027,1.302c-1.349,1.588 -2.526,2.421 -3.926,2.421c-0.577,0 -0.801,-0.026 -1.127,-0.286c-0.2,-0.156 -0.4,-0.599 -0.4,-0.886c0,-0.442 0.176,-0.729 0.626,-0.729c0.275,0 0.524,0.182 0.524,0.417c-0,0.521 -0.349,0.312 -0.349,0.781c0,0.235 0.125,0.391 0.424,0.391c1.176,0 2.528,-2.865 2.528,-4.271c-0,-1.249 -0,-2.317 0.148,-2.447l-0.049,-0.053c-0.299,0.183 -2.301,2.657 -2.902,3.36c-0.1,0.13 -0.149,0.208 -0.224,0.208c-0.076,-0 -0.1,-0.052 -0.1,-0.104c-0,-0.183 0.399,-0.521 1.101,-1.433c0.574,-0.755 2.026,-2.369 2.174,-2.447c0.052,-0.026 0.278,-0.781 0.828,-0.781c0.3,0 0.424,0.156 0.424,0.39c-0,0.495 -0.551,0.651 -1.001,0.807c-0.048,0.261 -0.1,0.339 -0.1,0.599c0,1.927 0.526,2.5 0.526,3.568c0,0.625 -0.299,1.146 -0.701,1.588l-0,-0.052m-22.241,-16.236c-2.809,2.276 -3.843,4.58 -6.561,9.16c-1.684,2.819 -6.589,8.456 -11.673,8.456c-2.421,0 -3.722,-1.057 -3.722,-2.06c-0,-0.759 0.325,-1.328 1.241,-1.328c0.679,0 1.064,0.407 1.064,1.085c0,0.352 -0.415,0.731 -0.415,0.921c0,0.623 1.123,1.057 1.893,1.057c8.096,-0 8.806,-11.817 17.758,-17.454c-1.536,-0.705 -3.368,-0.976 -5.081,-0.976c-8.776,0 -14.746,5.475 -14.746,8.944c-0,1.599 0.768,2.385 2.512,2.385c3.634,0 8.863,-5.312 9.84,-9.215c0.058,-0.189 0.146,-0.406 0.237,-0.406c0.088,-0 0.118,0.054 0.118,0.244c0,1.897 -3.488,9.811 -9.634,9.811c-1.774,-0 -3.428,-0.624 -3.428,-2.765c0,-2.294 2.104,-5.113 5.699,-7.046c2.52,-1.356 5.773,-2.277 9.548,-2.277c1.832,0 3.754,0.379 5.408,1.03c0.649,-0.461 1.565,-0.922 1.862,-0.922c0.088,0 0.146,0.055 0.146,0.136c0,0.135 -0.413,0.108 -1.653,0.949c1.713,0.813 3.191,2.52 3.191,4.363c0,2.792 -2.867,5.068 -5.821,5.068c-1.744,0 -2.63,-0.84 -2.63,-0.949c-0,-0.081 0.118,-0.189 0.206,-0.189c0.148,0 0.415,0.704 1.981,0.704c2.924,0 4.608,-3.198 4.608,-5.366c-0,-1.545 -0.531,-2.52 -1.948,-3.36m-4.719,17.337c1.51,-0 4.77,-3.357 4.77,-5.082c0,-0.466 -0.259,-0.839 -0.807,-0.839c-2.112,-0 -4.565,3.496 -4.565,5.174c-0,0.443 0.183,0.747 0.602,0.747Zm-1.219,-3.199c-1.198,1.119 -2.067,1.797 -2.894,1.842c-0.282,0.015 -0.163,-0.238 0.078,-0.28c0.732,-0.128 1.133,-0.411 2.74,-1.906l0.076,0.344Zm8.965,-2.885c-0.731,0.792 -3.758,4.941 -3.758,5.757c0,0.187 0.105,0.327 0.445,0.327c0.782,-0 2.191,-1.212 3.704,-2.798c0.312,-0.326 0.338,-0.373 0.391,-0.373c0.104,0 0.155,0.093 0.155,0.14c-0,0.047 -0.833,0.886 -1.435,1.469c-1.198,1.119 -2.19,1.841 -2.894,1.841c-0.703,0 -1.148,-0.326 -1.148,-1.608c0,-0.163 0.026,-0.303 0.026,-0.42c-0.782,0.7 -2.242,2.028 -3.232,2.028c-1.331,0 -1.646,-1.072 -1.646,-2.121c0,-0.373 0.054,-0.723 0.132,-1.096c-0.053,0 -0.159,0.073 -0.21,0.073c-0.054,-0 -0.104,-0.071 -0.104,-0.117c-0,-0.093 0.132,-0.119 0.469,-0.492c1.41,-1.538 3.522,-2.727 5.322,-2.727c0.782,-0 1.122,0.513 1.122,1.142c0,0.256 -0.027,0.489 -0.078,0.629l0.051,0.047c0.939,-1.329 0.888,-1.632 1.434,-1.655l1.254,-0.046Zm1.138,6.363c2.836,-3.8 4.326,-5.245 4.326,-5.874c0,-0.186 -0.197,-0.326 -0.479,-0.326c-0.39,-0 -1.066,0.256 -2.19,1.212c-1.715,1.468 -1.966,1.864 -2.079,1.864c-0.084,0 -0.139,-0.046 -0.139,-0.116c-0,-0.117 0.954,-0.956 1.658,-1.609c1.205,-1.072 2.078,-1.631 2.863,-1.631c0.703,-0 1.097,0.536 1.097,1.096c-0,0.932 -1.21,2.517 -1.77,3.147l0.055,0.046c1.491,-1.445 2.866,-2.215 3.12,-2.844c0.279,-0.676 0.87,-1.445 1.855,-1.445c0.475,-0 0.672,0.117 0.672,0.373c0,0.909 -3.145,1.608 -3.145,3.217c0,0.466 0.421,0.792 0.928,0.792c0.448,0 0.896,-0.163 1.263,-0.466c0.618,-0.513 0.842,-0.886 0.954,-0.886c0.085,0 0.17,0.047 0.17,0.117c-0,0.07 -0.448,0.489 -0.703,0.746c-0.561,0.536 -1.179,0.722 -1.715,0.722c-0.618,0 -1.236,-0.349 -1.236,-0.909c0,-0.536 0.197,-0.932 0.564,-1.305l-0.058,-0.047c-1.46,1.119 -2.809,2.471 -4.242,3.986l-1.769,0.14m14.97,-11.16c0.406,-0 0.669,0.259 0.669,0.612c-0,0.401 -0.38,0.895 -1.02,0.895c-0.409,-0 -0.67,-0.259 -0.67,-0.612c0,-0.4 0.38,-0.895 1.021,-0.895Zm-2.038,4.615c-3.495,4.662 -4.048,5.274 -4.048,5.768c0,0.4 0.289,0.495 0.553,0.495c0.933,-0 2.27,-0.942 3.231,-1.743c0.757,-0.612 1.718,-1.554 1.777,-1.554c0.088,0 0.174,0.024 0.174,0.118c-0,0.07 -0.553,0.612 -1.775,1.648c-1.429,1.201 -2.622,1.813 -3.438,1.813c-0.902,-0 -1.398,-0.518 -1.398,-1.224c0,-1.578 1.777,-3.179 2.767,-4.38l-0.057,-0.047c-0.348,0.283 -1.077,0.895 -2.474,2.166c-0.293,0.283 -0.321,0.306 -0.409,0.306c-0.088,0 -0.116,-0.07 -0.116,-0.14c0,-0.048 0.116,-0.142 0.873,-0.848c0.757,-0.707 2.067,-1.789 2.503,-2.284l1.837,-0.094Z"></path>
							</svg>